<?xml version="1.0" standalone="no"?>
<!DOCTYPE svg PUBLIC "-//W3C//DTD SVG 20010904//EN"
 "http://www.w3.org/TR/2001/REC-SVG-20010904/DTD/svg10.dtd">
<svg version="1.0" xmlns="http://www.w3.org/2000/svg"
 width="1280.000000pt" height="1280.000000pt" viewBox="0 0 1280.000000 1280.000000"
 preserveAspectRatio="xMidYMid meet">
<metadata>
Created by potrace 1.14, written by Peter Selinger 2001-2017
</metadata>
<g transform="translate(0.000000,1280.000000) scale(0.100000,-0.100000)"
fill="#000000" stroke="none">
<path d="M840 12004 l0 -796 39 31 c56 45 149 148 186 206 50 79 58 108 50
171 l-7 56 50 47 c27 25 109 84 181 131 422 272 531 352 531 393 0 30 -47 49
-167 67 -180 28 -236 47 -267 92 -48 68 16 142 272 314 61 42 112 78 112 80 0
2 -220 4 -490 4 l-490 0 0 -796z"/>
<path d="M3545 12743 c-66 -30 -185 -81 -265 -115 -80 -33 -198 -87 -263 -120
-176 -90 -228 -148 -293 -331 -55 -153 -147 -316 -279 -492 -152 -204 -298
-362 -870 -940 -304 -308 -369 -395 -465 -629 -24 -57 -66 -123 -152 -236
l-118 -158 0 -307 0 -307 62 54 c110 93 240 226 236 240 -3 9 -29 14 -81 16
-72 3 -77 4 -77 25 0 44 101 171 205 257 36 30 145 109 242 175 98 66 177 125
178 130 0 17 -64 17 -162 0 -130 -22 -220 -23 -240 -2 -38 37 37 155 171 269
40 35 147 115 237 178 338 236 432 333 790 810 248 331 509 649 733 894 50 54
214 213 363 353 150 139 277 263 283 273 10 19 7 20 -52 19 -54 -1 -80 -9
-183 -56z"/>
<path d="M4012 12593 c-341 -340 -484 -472 -545 -508 -32 -19 -86 -57 -120
-84 -90 -72 -281 -270 -376 -390 -251 -316 -569 -879 -659 -1166 -9 -28 -16
-87 -16 -135 -1 -103 15 -139 99 -220 31 -30 68 -74 82 -98 37 -62 29 -137
-26 -247 -33 -66 -60 -102 -136 -179 -127 -127 -152 -182 -245 -544 -202 -780
-238 -1227 -135 -1657 64 -269 161 -422 299 -474 125 -47 291 -52 381 -12 60
26 66 53 24 97 -58 60 -232 154 -284 154 -30 0 -31 -11 -8 -115 14 -68 15 -78
1 -91 -25 -26 -68 -6 -135 62 -117 119 -191 321 -228 619 -24 190 -17 330 25
490 17 66 42 190 55 276 30 192 38 227 71 320 72 200 184 357 292 411 40 20
62 23 152 22 120 0 172 -12 366 -84 74 -28 171 -55 221 -64 145 -23 149 -26
194 -175 29 -95 80 -170 172 -257 133 -125 234 -168 467 -198 162 -21 188 -29
237 -71 65 -55 96 -130 101 -240 5 -110 -15 -192 -83 -346 -47 -105 -51 -119
-37 -119 21 0 320 256 354 302 22 29 49 87 65 135 l28 85 37 -44 38 -43 24 27
c60 67 108 268 104 436 -2 69 -7 117 -13 119 -6 2 -21 -29 -34 -69 -65 -212
-90 -231 -150 -119 -17 32 -54 125 -82 207 -64 185 -111 280 -187 375 -100
126 -272 266 -397 325 -75 34 -255 78 -302 72 -27 -3 -26 -5 30 -41 94 -61 74
-72 -151 -82 -172 -8 -418 7 -547 34 -120 25 -195 62 -250 123 -56 63 -78 130
-99 309 -9 74 -28 218 -42 321 -14 103 -24 216 -22 250 3 68 -1 63 89 101 48
20 73 74 129 267 159 556 218 684 462 1008 82 108 165 228 184 265 28 55 39
67 52 61 66 -28 100 -13 332 150 205 143 393 256 575 345 77 38 205 100 285
139 80 39 174 94 209 121 l65 51 -392 0 -391 0 -209 -207z m-239 -3510 c-7 -2
-19 -2 -25 0 -7 3 -2 5 12 5 14 0 19 -2 13 -5z m406 -156 c-2 -1 -13 -9 -24
-17 -19 -14 -19 -14 -6 3 7 9 18 17 24 17 6 0 8 -1 6 -3z m122 -44 c13 -16 12
-17 -3 -4 -10 7 -18 15 -18 17 0 8 8 3 21 -13z m-294 -349 c-3 -3 -12 -4 -19
-1 -8 3 -5 6 6 6 11 1 17 -2 13 -5z m90 0 c-3 -3 -12 -4 -19 -1 -8 3 -5 6 6 6
11 1 17 -2 13 -5z m377 -206 c3 -15 15 -30 26 -33 36 -11 15 -113 -27 -129
-34 -13 -50 114 -23 179 13 31 14 30 24 -17z"/>
<path d="M5395 12758 c-120 -82 -310 -253 -372 -335 -19 -24 -23 -37 -15 -45
14 -14 91 22 225 106 223 140 324 172 592 186 94 5 193 14 220 21 63 15 163
60 195 87 l25 21 -405 0 -405 0 -60 -41z"/>
<path d="M6436 12740 c-75 -174 -278 -384 -437 -453 -90 -40 -140 -47 -417
-62 -645 -34 -976 -122 -1255 -331 -149 -112 -301 -291 -373 -439 -78 -161
-32 -155 213 28 388 288 823 440 1658 577 267 44 363 65 408 87 29 15 28 33
-2 33 -10 0 -24 6 -30 14 -10 12 7 34 90 120 56 58 106 106 111 106 6 0 8 -14
4 -32 -3 -18 -10 -127 -15 -243 -12 -251 -32 -340 -115 -511 -76 -154 -143
-239 -372 -469 -266 -267 -363 -392 -474 -615 -51 -101 -130 -321 -130 -360 0
-14 6 -18 27 -17 25 2 29 -3 41 -48 13 -49 11 -212 -4 -374 -7 -72 3 -75 35
-12 32 61 50 145 76 351 29 227 50 310 107 423 61 123 124 210 315 439 177
211 208 242 224 217 23 -35 -27 -266 -86 -402 -47 -110 -87 -172 -175 -275
-135 -158 -198 -260 -234 -381 -31 -105 -16 -97 74 40 80 122 107 147 139 130
29 -16 28 -16 46 44 8 30 19 55 24 55 4 0 18 -11 31 -25 12 -13 26 -22 31 -20
4 3 10 29 14 58 l8 52 13 -39 c8 -22 17 -78 20 -125 3 -47 7 -102 10 -121 l6
-35 18 23 c25 30 46 128 65 302 8 80 20 174 26 210 23 150 124 563 185 756 89
284 102 353 114 584 11 235 21 307 62 470 19 76 33 165 37 228 l6 102 -46 0
-46 0 -27 -60z"/>
<path d="M6653 12733 c-12 -38 -38 -114 -58 -171 -35 -98 -37 -110 -46 -295
-14 -276 -35 -471 -69 -637 -17 -80 -36 -170 -42 -200 -15 -80 -4 -561 16
-670 9 -46 40 -168 70 -270 30 -102 71 -264 91 -360 42 -205 43 -210 57 -210
19 0 0 282 -32 476 -37 219 -39 355 -9 551 12 82 21 196 22 279 l2 141 -39 76
c-36 71 -38 82 -34 140 9 113 82 237 139 237 11 0 71 -22 132 -49 124 -54 164
-64 314 -82 114 -13 178 -38 295 -115 47 -32 77 -60 95 -92 16 -26 67 -91 114
-146 116 -132 141 -184 147 -303 6 -120 -22 -218 -122 -431 -79 -169 -116
-266 -116 -307 0 -13 16 -62 35 -108 27 -66 42 -130 70 -300 37 -228 75 -391
94 -410 20 -20 28 8 41 132 6 64 20 188 31 276 10 88 26 239 34 335 16 192 27
243 85 402 48 131 51 182 14 263 -23 50 -26 66 -22 137 6 104 24 130 99 141
102 14 182 72 182 133 0 43 -66 96 -150 122 -260 78 -318 99 -397 138 -48 24
-148 80 -222 124 -73 45 -158 92 -189 106 -50 23 -60 24 -107 15 -98 -21 -257
40 -353 134 -95 93 -142 230 -97 284 9 11 39 26 65 33 79 21 284 -15 580 -101
162 -48 263 -94 469 -218 244 -146 327 -190 468 -253 172 -77 301 -117 420
-131 173 -19 174 -20 271 -120 56 -58 94 -89 108 -89 26 0 71 42 71 66 0 9
-35 51 -78 93 -49 47 -93 102 -118 146 -50 90 -182 223 -295 298 -120 79 -267
147 -449 205 -85 27 -242 78 -349 112 -152 49 -233 82 -380 156 -102 52 -188
94 -190 94 -2 0 41 -47 97 -104 77 -79 102 -112 107 -139 4 -20 4 -40 0 -46
-22 -37 -172 24 -288 118 -102 83 -297 319 -339 411 l-23 50 -55 0 -56 0 50
-100 c40 -81 51 -113 54 -164 7 -111 -43 -159 -110 -106 -45 35 -61 92 -66
238 -2 72 -7 132 -11 132 -4 0 -17 -30 -28 -67z"/>
<path d="M7370 12793 c8 -3 81 -34 162 -69 185 -80 279 -111 393 -129 159 -26
267 -14 273 32 5 34 -73 84 -227 147 -64 26 -65 26 -340 25 -152 0 -269 -3
-261 -6z"/>
<path d="M8601 12758 c66 -51 319 -253 409 -326 106 -87 152 -107 235 -103
180 10 238 6 302 -21 123 -52 223 -137 223 -191 0 -9 -11 -23 -25 -29 -21 -10
-45 -5 -153 31 -70 23 -156 46 -192 52 -66 10 -115 5 -105 -11 3 -5 52 -32
108 -60 268 -135 394 -284 530 -630 62 -157 120 -347 222 -730 136 -510 199
-681 312 -853 25 -38 116 -142 202 -231 290 -300 471 -587 471 -746 0 -49 -20
-73 -82 -100 -65 -27 -88 -47 -88 -75 0 -11 32 -76 70 -143 125 -217 171 -376
174 -597 1 -138 -7 -162 -56 -167 -57 -5 -61 -28 -42 -250 21 -233 23 -559 5
-683 -30 -211 -90 -386 -154 -453 -65 -68 -90 -75 -316 -83 -113 -4 -262 -13
-332 -19 -185 -15 -372 -14 -442 5 -115 30 -152 57 -337 245 -186 188 -219
213 -400 296 -47 21 -101 46 -120 56 -20 9 -37 12 -39 7 -5 -17 108 -157 224
-278 123 -127 187 -181 355 -296 130 -89 243 -192 271 -247 25 -49 25 -128 0
-159 -74 -92 -316 100 -627 497 -47 60 -156 215 -241 344 -181 272 -273 400
-341 470 -48 50 -72 62 -72 37 0 -61 363 -679 584 -995 147 -210 243 -327 407
-496 184 -190 213 -228 239 -314 47 -151 -1 -320 -95 -338 -27 -5 -45 0 -80
20 -79 47 -135 127 -371 532 -182 312 -309 508 -419 649 -190 241 -204 263
-330 519 -151 306 -294 546 -442 739 -119 155 -57 -21 153 -433 63 -124 180
-356 259 -517 l145 -292 117 -123 c64 -68 143 -163 176 -213 61 -94 414 -788
486 -957 23 -54 53 -146 67 -205 15 -60 30 -124 35 -144 21 -85 105 -108 211
-56 127 62 206 204 238 427 6 41 15 188 20 325 7 198 12 264 27 316 47 160
144 256 294 289 83 19 304 8 394 -19 186 -55 336 -164 397 -289 30 -60 33 -76
33 -152 0 -80 -3 -92 -39 -164 -48 -98 -138 -192 -256 -269 -86 -56 -391 -213
-443 -228 -41 -12 -43 6 -12 102 27 87 27 109 -2 109 -28 0 -121 -67 -185
-132 -102 -103 -145 -210 -102 -252 36 -37 99 -21 370 97 197 85 388 154 610
217 291 84 424 141 504 216 60 56 80 97 80 166 -1 95 -46 184 -223 430 -215
300 -215 299 -87 883 141 640 191 1028 206 1603 14 516 -28 678 -254 984 -135
184 -181 276 -334 678 -221 582 -304 742 -543 1045 -237 300 -329 436 -405
597 -49 105 -77 205 -63 219 33 33 218 -146 362 -349 52 -73 98 -135 103 -138
40 -25 18 109 -53 326 -71 218 -158 379 -249 457 -49 43 -139 86 -256 123
-303 97 -377 139 -511 287 -43 48 -102 113 -132 145 l-54 58 -290 0 -290 0 54
-42z"/>
<path d="M10960 12795 c0 -17 34 -66 61 -89 17 -15 86 -59 152 -98 215 -128
249 -177 193 -286 -24 -46 -43 -70 -179 -227 -71 -83 -89 -121 -66 -136 34
-23 200 22 348 94 116 56 191 128 237 226 20 42 47 100 61 129 39 83 56 73 93
-50 47 -154 91 -282 101 -292 5 -6 9 137 9 362 l0 372 -505 0 c-278 0 -505 -2
-505 -5z"/>
<path d="M6068 11715 c-48 -25 -142 -67 -210 -94 -191 -76 -249 -105 -363
-176 -128 -80 -207 -117 -385 -180 -74 -26 -171 -66 -215 -88 -194 -101 -318
-248 -320 -379 0 -54 2 -58 44 -97 43 -40 44 -41 38 -93 -7 -76 -40 -161 -97
-254 -72 -117 -82 -151 -82 -274 0 -144 38 -328 94 -462 27 -64 44 -61 58 10
18 90 25 111 70 216 42 98 42 99 50 265 13 240 55 389 154 541 l35 55 1 -33
c0 -44 16 -72 41 -72 33 0 127 98 200 208 66 100 108 186 96 198 -11 11 -48
-8 -125 -65 -221 -164 -341 -223 -358 -176 -10 25 41 118 98 180 88 95 178
140 508 258 254 91 410 162 525 240 154 104 322 319 248 316 -10 0 -57 -20
-105 -44z"/>
<path d="M6797 11603 c-16 -15 -5 -65 28 -130 55 -111 102 -140 125 -78 5 14
14 25 19 25 6 0 44 -44 84 -98 108 -142 162 -184 215 -168 30 10 46 57 33 100
-35 129 -152 229 -373 320 -85 35 -118 43 -131 29z"/>
<path d="M10770 11345 c0 -10 22 -59 49 -109 58 -108 69 -147 46 -169 -18 -19
-66 -33 -142 -43 -85 -11 -92 -43 -20 -81 71 -36 142 -49 352 -63 169 -11 252
-28 332 -67 64 -31 88 -62 79 -98 -10 -40 -41 -50 -180 -55 -79 -3 -131 -9
-133 -16 -2 -6 49 -39 114 -74 65 -35 156 -87 203 -116 231 -143 366 -319 460
-602 l39 -117 1 416 0 416 -74 6 c-88 8 -182 40 -197 69 -9 17 -5 28 20 63 17
24 31 52 31 62 0 26 -40 61 -140 121 -47 28 -141 92 -210 141 -148 107 -249
168 -425 256 -142 72 -205 90 -205 60z"/>
<path d="M8805 11286 c-53 -54 -85 -113 -85 -160 0 -40 20 -56 69 -56 45 0 74
-33 65 -73 -18 -87 -86 -161 -178 -196 -31 -11 -61 -21 -67 -21 -5 0 -38 -13
-72 -28 -70 -32 -116 -79 -178 -183 -47 -79 -49 -94 -11 -85 77 20 81 19 86
-5 3 -13 7 -70 10 -127 5 -79 2 -116 -10 -158 -9 -31 -13 -58 -10 -61 8 -8 6
-9 48 62 40 69 71 145 94 228 20 72 59 118 130 153 96 47 172 21 249 -84 45
-61 69 -133 69 -202 -1 -106 -57 -171 -269 -313 -341 -228 -433 -322 -559
-575 -67 -133 -99 -212 -87 -212 5 0 53 62 107 138 118 163 276 327 389 401
138 90 348 181 421 181 63 0 -11 -106 -139 -199 -90 -64 -151 -125 -144 -144
14 -43 244 11 447 105 147 68 151 92 17 103 -129 10 -148 23 -79 52 48 21 164
21 264 -1 89 -19 216 -21 252 -5 47 22 41 38 -58 135 -87 86 -98 102 -156 221
-34 70 -75 158 -91 195 -33 75 -104 352 -114 443 -9 79 -16 90 -76 121 -68 34
-136 98 -164 154 -12 25 -30 79 -39 120 -30 132 -58 149 -131 76z"/>
<path d="M6752 11096 l3 -224 40 -56 c85 -119 103 -155 130 -269 44 -177 68
-231 156 -352 118 -161 153 -236 239 -522 17 -57 35 -103 40 -103 16 0 11 116
-9 245 -24 153 -29 187 -40 315 -14 148 -39 218 -132 372 -108 177 -138 238
-195 397 -26 73 -54 136 -62 139 -14 5 -23 -3 -48 -45 -10 -16 -12 -15 -26 12
-9 17 -31 94 -49 173 -18 78 -37 142 -42 142 -4 0 -7 -101 -5 -224z"/>
<path d="M4230 11071 c-107 -35 -466 -183 -528 -217 -139 -75 -240 -165 -325
-289 -50 -72 -77 -100 -136 -140 -91 -62 -112 -98 -151 -249 -41 -158 -56
-186 -141 -247 -39 -29 -67 -55 -62 -60 11 -11 128 10 293 51 293 74 371 55
663 -158 140 -102 163 -116 172 -102 10 16 -27 77 -165 270 -72 102 -150 223
-173 269 -40 81 -42 89 -42 175 0 82 3 98 33 160 96 204 262 281 328 154 9
-17 45 -116 80 -220 35 -104 78 -222 95 -263 32 -78 56 -100 45 -42 -19 112
-28 225 -23 326 5 136 21 187 118 385 44 91 63 141 63 170 l1 41 -45 2 c-25 1
-70 -6 -100 -16z"/>
<path d="M6306 11003 c-19 -70 -30 -233 -28 -428 3 -270 -9 -400 -55 -575 -43
-165 -48 -190 -35 -190 17 0 80 134 118 251 47 146 64 178 121 234 l48 45 -32
0 c-20 0 -33 6 -38 18 -4 9 -11 125 -15 257 -8 243 -20 328 -56 383 -17 27
-21 27 -28 5z"/>
<path d="M9997 10012 c-59 -63 -68 -83 -111 -235 -19 -70 -48 -153 -63 -185
-54 -114 -182 -210 -328 -247 -77 -19 -175 -21 -460 -11 -402 15 -507 -19
-730 -234 -55 -53 -122 -111 -150 -130 -109 -72 -176 -156 -251 -315 -55 -116
-84 -227 -84 -320 0 -117 11 -117 133 3 57 55 122 109 145 121 115 59 110 -10
-14 -175 -37 -49 -75 -108 -86 -132 -24 -53 -41 -157 -33 -199 7 -38 22 -44
27 -11 8 53 28 25 63 -86 53 -169 65 -168 84 8 7 62 18 134 26 160 37 121 140
260 216 290 23 9 77 21 120 27 236 29 440 128 561 270 25 30 84 113 130 184
87 133 118 162 191 179 16 4 75 33 133 66 204 116 302 127 421 47 67 -45 88
-90 75 -163 -7 -44 -6 -58 5 -70 18 -18 19 -18 77 2 66 23 157 109 186 176 36
83 27 138 -48 288 -81 163 -91 229 -72 461 7 87 10 162 7 166 -13 13 -55 -39
-85 -105 -17 -37 -43 -112 -58 -167 -31 -116 -51 -161 -94 -204 -33 -33 -50
-39 -50 -18 0 18 48 229 76 329 13 48 44 128 69 178 25 49 45 92 45 95 0 18
-34 -2 -73 -43z m-1720 -1239 c-3 -10 -5 -4 -5 12 0 17 2 24 5 18 2 -7 2 -21
0 -30z m603 -127 c0 -2 -8 -10 -17 -17 -16 -13 -17 -12 -4 4 13 16 21 21 21
13z"/>
<path d="M5196 9807 c-15 -31 -35 -92 -44 -135 -15 -76 -15 -81 3 -128 14 -35
20 -76 21 -145 2 -130 31 -259 59 -259 6 0 21 19 31 42 31 69 25 162 -19 290
-40 116 -48 206 -26 307 17 81 6 94 -25 28z"/>
<path d="M4906 9785 c-44 -120 -60 -156 -82 -176 -65 -60 -77 -134 -49 -301
19 -119 33 -168 49 -168 10 0 15 34 19 143 4 109 14 182 42 315 20 96 34 181
32 190 -3 15 -5 14 -11 -3z"/>
<path d="M3160 9770 c-24 -17 26 -51 213 -145 166 -84 230 -107 177 -64 -52
43 -100 90 -100 98 0 23 166 -37 408 -148 133 -61 152 -68 152 -53 0 9 -352
244 -407 271 -78 39 -150 51 -293 51 -74 0 -142 -5 -150 -10z"/>
<path d="M1718 9636 c-150 -54 -323 -285 -431 -576 -95 -256 -107 -486 -46
-930 31 -226 34 -353 15 -524 -33 -286 11 -495 178 -853 123 -263 148 -334
162 -459 14 -132 -23 -261 -146 -505 -138 -274 -144 -299 -114 -519 17 -127
13 -199 -17 -350 -10 -52 -19 -110 -19 -128 0 -54 20 -57 236 -33 223 25 386
27 467 6 115 -30 136 -46 339 -266 110 -121 179 -164 282 -180 76 -12 187 1
273 31 109 38 107 60 -9 105 -65 26 -84 40 -178 135 -58 58 -131 123 -163 144
-79 51 -268 141 -457 216 -277 110 -385 182 -430 283 -79 179 -18 440 140 597
140 139 329 215 530 214 124 -1 191 -17 339 -81 169 -74 237 -65 319 42 38 50
67 131 82 234 22 150 53 194 369 514 128 130 231 240 228 243 -7 8 -71 -36
-247 -170 -168 -128 -260 -206 -385 -326 -103 -99 -195 -151 -310 -175 -116
-25 -316 -37 -513 -32 -161 3 -196 7 -249 26 -73 26 -145 87 -193 161 -159
248 -235 889 -171 1437 27 232 75 517 150 903 73 372 88 458 100 580 12 123 1
197 -34 228 -30 25 -45 26 -97 8z"/>
<path d="M11770 9466 c-27 -33 77 -309 180 -478 l20 -33 0 218 c0 193 -2 217
-16 217 -9 0 -49 20 -88 45 -40 25 -75 45 -78 45 -3 0 -11 -6 -18 -14z"/>
<path d="M7326 9394 c-3 -9 -6 -35 -6 -58 0 -50 23 -88 139 -231 44 -55 99
-135 121 -177 41 -78 56 -147 33 -155 -24 -9 -125 102 -209 231 -121 184 -144
206 -144 143 0 -88 67 -220 191 -377 50 -63 97 -127 105 -142 18 -34 18 -58 0
-58 -18 0 -90 51 -161 114 -31 27 -58 46 -61 43 -7 -7 43 -82 99 -150 22 -27
73 -71 114 -98 61 -41 78 -60 100 -105 29 -58 48 -71 39 -26 -3 15 -10 55 -16
89 -6 34 -22 99 -35 144 -30 99 -31 119 -7 119 31 0 42 22 42 84 0 67 -55 242
-120 383 -75 162 -200 289 -224 227z"/>
<path d="M4994 9163 c-10 -65 9 -370 24 -385 6 -6 14 -9 17 -6 11 11 134 303
129 307 -2 3 -19 -10 -37 -27 -58 -56 -64 -51 -97 96 -16 69 -27 73 -36 15z"/>
<path d="M2684 8983 c-29 -5 -58 -38 -51 -57 3 -8 50 -28 105 -45 118 -37 148
-60 157 -125 5 -31 15 -52 31 -65 46 -36 281 -72 291 -45 2 6 -28 42 -67 80
-76 73 -78 79 -55 153 8 22 7 23 -26 15 -76 -20 -135 -10 -232 39 -99 49 -120
56 -153 50z"/>
<path d="M9619 8890 c-45 -29 -101 -85 -262 -262 -185 -204 -402 -347 -667
-438 -122 -42 -154 -64 -146 -99 4 -14 12 -64 20 -110 15 -93 28 -112 94 -131
73 -20 208 -5 242 27 20 18 9 25 -95 59 -82 26 -133 53 -156 80 -20 25 5 34
96 34 171 1 240 19 455 120 183 86 228 101 315 107 124 9 271 -45 367 -135 54
-50 73 -83 113 -188 40 -107 61 -121 123 -84 37 23 84 91 111 165 44 117 80
359 88 590 8 245 -11 266 -124 138 -159 -182 -206 -213 -347 -234 -60 -9 -98
-9 -164 0 -192 27 -205 65 -82 250 101 153 103 167 19 111z"/>
<path d="M2372 8673 c-46 -66 -82 -168 -103 -289 -16 -94 -7 -349 15 -429 34
-123 108 -204 195 -213 38 -3 73 3 151 29 160 51 173 73 77 127 -29 17 -65 44
-79 61 -50 59 -49 212 1 262 48 48 197 63 335 34 37 -8 170 -48 295 -89 359
-118 408 -130 536 -130 93 -1 118 3 161 22 29 13 64 36 78 51 38 39 23 48
-125 72 -212 36 -372 99 -569 225 -198 126 -270 149 -435 139 -116 -8 -250 8
-313 35 -23 10 -66 42 -95 69 -63 60 -95 66 -125 24z"/>
<path d="M10560 8573 c0 -10 29 -45 65 -78 75 -70 78 -84 40 -171 -14 -31 -25
-65 -25 -76 0 -11 11 -33 25 -50 49 -59 27 -172 -54 -268 -21 -25 -44 -56 -51
-70 -12 -23 -10 -27 39 -70 69 -61 73 -87 32 -209 -48 -142 -124 -283 -195
-358 -33 -36 -104 -97 -158 -135 -54 -38 -101 -74 -104 -80 -11 -17 18 -28 79
-28 31 0 57 -4 57 -10 0 -15 -85 -60 -153 -82 -34 -11 -127 -32 -205 -48 -79
-16 -146 -31 -150 -34 -14 -15 14 -16 140 -6 232 17 419 79 592 194 144 96
177 150 216 353 12 59 37 186 56 281 49 242 53 314 24 456 -13 62 -20 121 -17
130 4 9 22 26 42 37 19 12 35 29 35 38 0 9 -22 39 -50 66 -27 27 -50 54 -50
61 0 6 9 19 20 29 32 29 25 52 -25 81 -53 31 -154 64 -196 64 -21 0 -29 -5
-29 -17z"/>
<path d="M5055 8090 c-9 -17 -49 -126 -90 -243 -93 -271 -110 -314 -248 -657
-168 -417 -212 -572 -224 -795 -7 -132 6 -132 31 0 56 296 139 510 309 800 92
156 161 302 187 395 30 112 60 291 67 411 6 115 -4 144 -32 89z"/>
<path d="M3250 7978 c-197 -13 -239 -28 -192 -71 35 -32 101 -47 204 -47 119
0 125 -7 82 -86 -35 -65 -27 -78 44 -75 104 3 203 50 271 128 65 73 59 78
-102 81 -75 1 -137 6 -137 10 0 4 16 17 35 30 70 45 52 47 -205 30z"/>
<path d="M9205 7971 c-11 -19 20 -56 94 -113 39 -29 70 -59 71 -65 0 -7 -1
-13 -3 -13 -21 0 -128 41 -189 71 -43 21 -89 39 -103 39 -23 0 -25 -4 -25 -42
0 -48 27 -100 60 -118 36 -19 286 -34 333 -20 39 11 39 12 33 51 l-6 39 97 0
c86 0 137 10 123 23 -18 16 -107 52 -240 95 -175 57 -234 70 -245 53z"/>
<path d="M10057 7706 c-68 -15 -99 -36 -149 -101 -56 -75 -70 -79 -245 -83
-84 -2 -153 -7 -153 -12 0 -8 12 -13 120 -50 87 -30 110 -47 110 -78 0 -33
-68 -98 -120 -113 -60 -18 -124 0 -300 87 -84 41 -155 73 -157 71 -2 -3 39
-39 92 -81 52 -42 95 -81 95 -86 0 -19 -66 -9 -125 19 -34 15 -108 59 -165 96
-251 163 -421 256 -429 233 -8 -23 246 -222 430 -337 247 -154 561 -281 694
-281 69 0 285 65 300 90 3 5 -48 8 -114 7 -103 -2 -121 0 -139 16 -26 24 -21
38 24 62 58 31 115 104 184 236 36 68 78 139 94 157 18 20 74 56 138 88 60 30
106 59 103 64 -9 14 -218 11 -288 -4z"/>
<path d="M2553 7509 c-65 -8 -103 -23 -103 -40 0 -5 17 -28 38 -52 21 -23 52
-60 70 -83 40 -52 130 -101 223 -120 81 -17 112 -13 184 24 64 32 214 133 239
161 19 21 19 21 -10 21 -16 0 -65 -7 -109 -15 -44 -9 -92 -13 -108 -9 -15 3
-53 27 -83 54 -35 30 -71 52 -99 59 -49 12 -149 13 -242 0z"/>
<path d="M3412 7151 c-60 -39 -129 -79 -151 -91 l-41 -20 -79 20 c-96 24 -123
25 -184 4 -86 -29 -186 -142 -187 -210 -1 -113 321 -38 535 123 81 61 235 214
235 233 0 18 -15 11 -128 -59z"/>
<path d="M4112 7053 c-39 -60 -139 -196 -223 -303 -257 -329 -345 -468 -403
-638 -43 -125 -46 -130 -112 -217 -75 -100 -79 -114 -53 -192 20 -61 20 -67 5
-107 -38 -100 -270 -320 -415 -393 -66 -34 -82 -38 -150 -38 -71 0 -84 4 -175
48 -54 26 -101 45 -104 42 -9 -9 21 -55 84 -129 91 -107 190 -193 263 -229 55
-27 77 -32 136 -32 127 0 216 59 420 281 217 236 226 269 57 205 -42 -17 -89
-33 -104 -37 -48 -11 -34 26 48 132 99 129 113 159 129 269 10 74 20 106 54
167 39 72 41 78 41 164 0 115 16 149 145 314 54 69 120 159 147 200 82 127
310 600 289 600 -4 0 -40 -48 -79 -107z"/>
<path d="M3659 6816 c-121 -105 -286 -279 -352 -367 -105 -144 -166 -284 -152
-350 21 -94 104 -10 281 281 48 80 135 217 194 305 160 240 162 249 29 131z"/>
<path d="M4583 5978 c-6 -7 -27 -45 -46 -84 -81 -161 -99 -273 -51 -321 22
-22 31 -24 67 -19 57 9 101 37 105 65 3 16 -7 34 -27 55 -50 52 -64 142 -40
256 11 54 9 69 -8 48z"/>
<path d="M7854 5903 c-6 -38 -15 -55 -45 -83 -22 -20 -39 -43 -39 -53 0 -23
68 -97 90 -97 19 0 100 98 100 121 0 20 -74 152 -87 156 -7 3 -14 -15 -19 -44z"/>
<path d="M9190 5144 c-28 -74 -4 -131 65 -153 31 -10 50 -22 50 -31 0 -22 -89
-49 -160 -49 -33 0 -87 6 -119 14 -95 23 -140 4 -138 -56 2 -60 69 -129 127
-129 40 0 62 16 75 54 16 51 37 63 134 80 133 23 168 55 147 133 -17 63 -115
163 -161 163 -6 0 -15 -12 -20 -26z"/>
<path d="M8723 4863 c-23 -60 -22 -119 3 -169 24 -50 59 -57 94 -19 40 43 35
108 -14 179 -21 31 -44 56 -51 56 -8 0 -22 -21 -32 -47z"/>
<path d="M840 3836 l0 -1057 38 6 c220 36 305 58 622 158 517 164 1018 362
1170 463 45 30 64 65 47 88 -21 28 -79 44 -292 80 -266 45 -311 57 -412 106
-108 53 -167 119 -263 292 -134 245 -166 274 -371 338 -196 62 -235 97 -392
357 -48 79 -100 162 -117 184 l-30 42 0 -1057z"/>
<path d="M4130 4829 c-38 -15 -91 -59 -100 -83 -12 -32 6 -56 41 -56 23 0 43
12 85 54 61 62 71 96 27 95 -16 0 -39 -5 -53 -10z"/>
<path d="M8454 4795 c-14 -22 -15 -32 -5 -65 18 -62 86 -68 116 -10 20 39 19
47 -10 75 -33 34 -79 33 -101 0z"/>
<path d="M3561 4784 c-14 -18 -21 -41 -21 -69 0 -52 30 -82 112 -113 89 -33
228 -40 228 -12 0 5 -28 28 -62 52 -35 23 -93 70 -130 105 -37 35 -76 63 -87
63 -11 0 -29 -12 -40 -26z"/>
<path d="M7636 4741 c-15 -16 -51 -68 -80 -117 -29 -49 -65 -97 -80 -109 -42
-30 -96 -24 -205 24 -128 57 -190 72 -296 72 -116 0 -172 -16 -363 -102 -273
-124 -312 -134 -507 -134 -178 0 -189 3 -570 120 -112 34 -173 47 -242 52
-111 7 -155 -3 -288 -65 -82 -38 -111 -46 -157 -47 -51 0 -61 3 -88 30 -17 17
-54 83 -83 150 -30 65 -59 121 -65 123 -25 8 -37 -43 -37 -158 1 -167 35 -259
133 -363 73 -76 140 -123 347 -242 297 -171 346 -208 495 -365 135 -143 149
-154 387 -305 150 -94 223 -198 223 -313 -1 -138 -109 -237 -438 -401 -207
-103 -243 -127 -277 -186 -41 -69 -30 -94 23 -56 101 70 197 95 312 80 99 -14
117 -9 175 41 25 22 57 43 71 46 45 11 114 -24 182 -94 35 -35 66 -62 68 -59
3 3 0 32 -6 65 -7 33 -11 65 -9 71 2 6 23 -2 49 -19 59 -39 90 -40 90 -2 1 26
3 24 56 -33 31 -33 83 -98 117 -145 110 -155 132 -181 163 -201 38 -23 72 -25
80 -4 12 31 -22 79 -163 227 -160 169 -248 268 -239 268 4 0 24 -11 46 -25 52
-33 360 -178 423 -199 54 -18 87 -14 113 15 9 10 22 19 27 19 5 0 46 -27 90
-60 44 -34 85 -59 91 -57 20 7 17 32 -7 68 -23 35 -48 50 -287 179 -401 215
-623 420 -637 588 -6 68 18 99 129 167 124 76 169 115 322 273 139 143 193
190 411 354 77 58 178 140 225 181 223 197 340 402 340 598 0 85 -17 99 -64
50z"/>
<path d="M11852 4684 c-34 -24 -42 -46 -52 -155 -6 -65 -17 -118 -30 -144 -44
-90 -175 -192 -400 -308 -167 -87 -266 -120 -504 -168 -225 -46 -283 -64 -440
-138 -60 -29 -139 -61 -175 -72 -107 -33 -122 -41 -119 -58 6 -32 195 -80 513
-132 238 -39 244 -40 175 -50 -55 -8 -468 -29 -569 -29 -45 0 -52 -2 -42 -14
34 -41 703 -276 905 -317 162 -33 212 -19 264 79 61 114 85 123 347 129 110 2
210 6 223 9 l22 4 0 690 0 690 -48 0 c-27 0 -57 -7 -70 -16z"/>
<path d="M10122 4561 c-9 -6 -11 -19 -7 -44 6 -28 2 -42 -16 -66 -27 -37 -20
-48 37 -62 67 -16 287 -23 312 -10 39 21 22 77 -45 152 l-35 39 -117 0 c-64 0
-122 -4 -129 -9z"/>
<path d="M9007 4490 c-20 -29 -6 -70 35 -105 39 -33 65 -32 119 5 24 16 47 30
51 30 3 0 9 -13 13 -30 8 -36 28 -39 49 -8 33 46 11 89 -53 108 -18 5 -70 12
-115 16 -78 6 -84 5 -99 -16z"/>
<path d="M3423 4360 c-82 -37 -79 -102 9 -172 59 -49 95 -66 188 -89 52 -13
102 -34 142 -59 58 -38 65 -40 142 -40 73 0 85 -3 126 -30 37 -25 55 -30 105
-30 59 0 63 -2 149 -65 89 -66 153 -93 231 -98 34 -2 40 1 43 19 5 33 -47 69
-127 89 -65 16 -71 20 -81 50 -14 43 -33 58 -105 84 -33 12 -76 37 -95 55 -52
49 -75 59 -129 51 -43 -6 -51 -3 -81 22 -31 26 -39 28 -107 25 l-73 -3 -45 42
c-40 37 -53 43 -101 47 -59 5 -84 25 -84 69 0 21 -33 53 -55 53 -5 0 -29 -9
-52 -20z"/>
<path d="M8765 4341 c6 -36 4 -41 -21 -58 -39 -25 -106 -21 -183 10 -35 15
-67 25 -69 22 -3 -2 5 -24 18 -48 l23 -44 -34 -42 c-41 -50 -57 -55 -134 -43
-33 6 -63 8 -66 6 -4 -2 2 -22 13 -43 11 -22 17 -44 14 -49 -12 -19 -62 -20
-113 -2 -59 21 -72 15 -92 -37 -17 -41 -35 -47 -86 -27 -72 27 -96 18 -127
-48 -39 -82 -44 -105 -21 -110 48 -10 97 10 136 56 22 25 46 46 54 46 9 0 37
-8 63 -17 58 -21 81 -12 121 46 35 50 59 55 115 25 57 -30 79 -30 100 1 13 20
15 37 9 81 -5 45 -3 59 11 75 25 28 42 23 49 -15 8 -41 38 -75 68 -78 74 -5
132 18 147 58 6 14 7 50 4 80 -8 68 1 69 69 5 63 -59 85 -71 131 -71 46 0 52
13 27 54 -12 18 -21 41 -21 49 0 15 4 15 41 2 44 -16 160 -21 144 -7 -6 5 -30
16 -55 25 -27 10 -66 38 -95 67 -27 28 -52 50 -56 50 -4 0 -9 -9 -12 -20 -7
-27 -27 -25 -97 10 -78 39 -83 39 -75 -9z"/>
<path d="M9951 4309 c-31 -10 -33 -12 -27 -44 7 -37 11 -35 -96 -61 -34 -8
-36 -22 -5 -28 128 -27 190 -38 230 -43 l49 -6 57 61 c53 57 62 62 140 84 46
13 83 28 82 33 -1 13 -385 17 -430 4z"/>
<path d="M9140 3785 c-422 -224 -627 -287 -828 -255 -90 14 -131 5 -244 -51
-190 -95 -367 -140 -645 -165 -121 -10 -93 -30 97 -71 207 -43 490 -43 888 3
232 26 363 73 542 192 182 122 493 466 418 461 -7 0 -110 -52 -228 -114z"/>
<path d="M3435 3770 c-8 -14 26 -85 69 -145 96 -133 246 -254 409 -329 242
-113 498 -166 697 -146 155 16 320 70 320 105 0 20 -47 31 -256 60 -408 58
-639 141 -1019 365 -160 94 -206 113 -220 90z"/>
<path d="M9908 3349 c-62 -27 -85 -31 -264 -44 -230 -18 -344 -39 -503 -96
-385 -138 -474 -161 -691 -179 -207 -16 -209 -17 -256 -65 -62 -64 -96 -69
-464 -62 -342 6 -365 9 -576 82 -135 46 -171 52 -205 35 -41 -22 -11 -59 86
-108 207 -102 507 -152 910 -152 327 0 417 15 796 128 176 52 309 74 429 70
l95 -3 -60 -28 c-33 -16 -115 -62 -183 -103 -179 -109 -325 -168 -542 -218
-170 -39 -275 -51 -455 -50 -183 0 -236 8 -490 69 -167 40 -226 49 -260 41
-55 -14 -12 -80 80 -122 30 -14 124 -42 209 -64 85 -21 182 -51 216 -66 90
-40 159 -122 175 -207 16 -81 -51 -117 -181 -97 -142 22 -172 37 -403 200 -46
33 -90 60 -98 60 -36 0 4 -78 86 -163 173 -182 502 -307 810 -308 141 -1 215
10 338 47 127 38 196 73 362 184 119 80 198 123 350 193 108 49 219 98 246
109 68 27 171 33 304 19 155 -18 178 -12 262 64 93 83 136 105 356 179 103 35
227 82 275 105 145 69 228 149 214 206 -9 36 -88 99 -179 143 -226 110 -594
233 -695 232 -15 0 -57 -14 -94 -31z"/>
<path d="M3155 3284 c-156 -25 -429 -78 -565 -110 -200 -48 -548 -168 -682
-235 -119 -60 -117 -71 18 -92 119 -19 185 -47 323 -136 118 -76 693 -369 790
-403 184 -63 380 -29 495 85 59 59 81 105 106 217 11 51 25 99 31 106 24 30
78 33 248 17 145 -14 219 -14 591 -4 535 15 668 31 850 104 85 34 192 96 198
115 6 18 -26 15 -161 -17 -276 -66 -565 -98 -790 -87 -143 7 -338 29 -417 48
-260 61 -457 145 -655 278 -127 86 -189 112 -274 115 -42 2 -89 1 -106 -1z"/>
<path d="M5507 2775 c-81 -62 -194 -141 -250 -175 -115 -70 -157 -105 -157
-132 0 -20 -1 -19 85 -22 53 -1 60 -3 63 -23 9 -61 -200 -206 -360 -249 -64
-17 -177 -18 -229 -3 -55 17 -81 49 -86 106 -4 39 0 55 19 83 13 19 36 41 50
50 25 14 31 13 92 -19 49 -25 72 -32 93 -26 60 14 183 176 167 219 -9 23 -33
20 -188 -24 -189 -55 -289 -71 -431 -71 -129 -1 -213 13 -383 62 -183 53 -215
25 -99 -87 35 -33 116 -93 180 -133 99 -61 128 -85 186 -155 110 -132 175
-180 285 -211 72 -21 160 -16 226 13 115 49 416 241 498 316 54 49 72 88 72
154 0 74 43 133 264 360 44 45 74 82 66 81 -8 0 -82 -51 -163 -114z"/>
<path d="M2062 1908 c-88 -70 -233 -251 -286 -357 -63 -124 -68 -152 -76 -436
-9 -292 -23 -386 -67 -449 -42 -59 -85 -78 -163 -74 -116 7 -176 51 -240 177
-45 89 -83 129 -136 141 -46 11 -77 6 -176 -28 l-78 -25 0 -429 0 -428 579 0
579 0 20 52 c61 153 61 272 1 558 -43 205 -43 205 -43 425 -1 250 10 319 85
565 62 200 89 308 83 325 -9 24 -38 18 -82 -17z"/>
<path d="M3896 1629 c-8 -13 -45 -131 -81 -263 -80 -294 -123 -380 -172 -350
-26 15 -59 87 -88 194 -65 233 -85 277 -99 209 -3 -18 -13 -143 -21 -278 -17
-283 -29 -402 -56 -555 -22 -128 -21 -116 -10 -116 5 0 24 24 42 53 56 89 108
156 129 167 18 9 26 5 61 -29 22 -23 48 -41 59 -41 47 0 160 178 245 385 103
249 129 275 320 315 98 21 250 73 270 93 7 6 2 7 -15 2 -14 -4 -44 -10 -67
-12 -48 -6 -60 7 -92 98 -50 147 -68 154 -186 75 -107 -72 -129 -72 -166 -3
-14 26 -33 55 -41 64 -15 14 -17 13 -32 -8z"/>
<path d="M10292 1603 c-17 -8 -100 -87 -183 -174 -83 -87 -160 -161 -171 -165
-32 -10 -46 14 -62 110 -18 101 -36 136 -70 136 -49 0 -100 -59 -275 -315
-112 -164 -156 -215 -182 -215 -21 0 -23 8 -45 119 -35 188 -68 192 -264 37
-126 -100 -143 -106 -217 -70 -68 33 -114 35 -197 9 -59 -19 -258 -115 -416
-201 -46 -25 -86 -41 -88 -36 -2 6 26 62 62 124 39 67 66 125 66 142 0 27 -2
28 -32 22 -18 -3 -94 -34 -168 -68 -159 -72 -207 -81 -279 -49 -105 45 -162
23 -461 -176 -300 -199 -308 -203 -554 -264 -281 -70 -321 -91 -745 -378
l-274 -186 297 -3 296 -2 67 34 c38 19 144 79 237 135 241 144 389 211 466
211 83 0 31 -109 -135 -287 l-87 -93 469 0 468 0 250 96 c403 155 375 147 561
149 156 1 162 2 225 32 35 17 102 59 149 95 47 35 136 103 197 149 62 47 163
114 225 149 207 116 256 150 361 249 57 53 125 107 150 119 25 12 94 31 154
43 60 12 129 32 155 46 92 50 140 161 142 330 1 88 -2 105 -20 129 -26 35 -32
37 -72 17z"/>
<path d="M4697 1206 c-9 -14 -39 -82 -67 -153 -62 -158 -89 -207 -117 -211
-26 -4 -52 38 -83 133 -34 106 -61 165 -76 165 -17 0 -31 -74 -44 -245 -6 -77
-16 -160 -22 -185 -19 -80 -84 -201 -188 -350 -116 -165 -147 -220 -127 -220
7 0 80 50 163 112 190 142 251 171 272 131 5 -10 12 -57 14 -104 5 -109 22
-139 76 -139 26 0 57 11 96 35 85 51 110 73 411 366 141 137 186 169 212 148
30 -26 1 -125 -107 -362 -64 -141 -79 -190 -61 -201 37 -23 227 119 427 318
243 242 267 320 84 280 -149 -32 -199 2 -251 168 -38 118 -63 154 -101 145
-15 -4 -59 -32 -99 -62 -40 -30 -78 -55 -85 -55 -16 0 -24 23 -25 73 -1 58
-12 91 -30 95 -9 2 -42 -17 -75 -41 -112 -83 -115 -81 -151 127 -9 57 -24 67
-46 32z"/>
<path d="M11760 1105 c-15 -18 -28 -142 -29 -273 -1 -116 -18 -162 -58 -162
-15 0 -75 22 -133 49 -58 27 -120 52 -138 56 -31 6 -37 3 -83 -47 l-49 -53
-90 -5 c-135 -9 -135 -8 -135 -213 0 -176 -5 -196 -54 -222 -35 -18 -308 -86
-459 -115 -60 -11 -207 -31 -327 -45 -227 -26 -389 -51 -415 -66 -8 -5 479 -9
1083 -9 l1097 0 0 455 0 455 -85 98 c-97 110 -108 118 -125 97z"/>
</g>
</svg>
